<?xml version="1.0" standalone="no"?><!DOCTYPE svg PUBLIC "-//W3C//DTD SVG 1.1//EN" "http://www.w3.org/Graphics/SVG/1.1/DTD/svg11.dtd"><svg t="1545291938546" class="icon" style="" viewBox="0 0 1024 1024" version="1.1" xmlns="http://www.w3.org/2000/svg" p-id="3296" xmlns:xlink="http://www.w3.org/1999/xlink" width="200" height="200"><defs><style type="text/css"></style></defs><path d="M227.7 457.9c-11.9 0-21.6 9.7-21.6 21.6v61.7c0 159.1 129.5 288.6 288.6 288.6s288.6-129.6 288.6-288.6v-61.7c0-11.9-9.7-21.6-21.6-21.6h-534z m320.7 240.7c-24.2 14-51.1 21.6-75.7 21.6-31.5 0-56.7-12.3-69.1-33.9-11.5-20-10.9-45 1.6-70.3 11.9-24 33.2-45.7 60.1-61.3 24.3-14 51.1-21.7 75.7-21.7 31.1 0 56.1 12.2 68.8 33.4 0.3 0.4 0.6 1 0.8 1.5 22 39.6-5.7 98-62.2 130.7z" fill="#FFDBC0" p-id="3297"></path><path d="M585.9 596.1c1.3 27.8-21.9 62.4-59 83.8-20.9 12.1-44 18.8-64.9 18.8-22.4 0-40.1-7.6-49.3-21v-0.1c16.4-23.2 45-29.6 77.6-36.8 33.1-7.5 69.8-15.7 95.6-44.7zM577.2 572.6c-21.3 31.5-55.5 39.1-91.6 47.1-28.7 6.4-58.2 13-79.4 32.8 0.3-8.6 2.9-17.7 7.5-27.2 10-20.2 28.2-38.6 51.5-52.2 21-12.1 44.1-18.8 64.9-18.8 20.8 0.1 37.6 6.7 47.1 18.3zM806.8 411.4v5.3c0 10.9-8.9 19.9-19.9 19.9H195.8c-11.1 0-20-8.9-20-19.9v-5.3c0-10.9 8.9-19.9 20-19.9H787c10.9 0 19.8 8.9 19.8 19.9zM604 862.3v3.8c0 6-4.9 10.9-11.1 10.9H403.3c-6 0-10.9-4.9-10.9-10.9v-3.8c0-6 4.9-10.9 10.9-10.9h189.6c6.1-0.1 11.1 4.9 11.1 10.9z" fill="#D58D7B" p-id="3298"></path><path d="M592.9 887.7H403.3c-11.9 0-21.7-9.7-21.7-21.7v-3.8c0-11.9 9.7-21.7 21.7-21.7h189.6c12 0 21.8 9.7 21.8 21.7v3.8c0 12-9.8 21.7-21.8 21.7z m-189.6-25.6l-0.2 4 189.8 0.2c0.3 0 0.3-0.2 0.3-0.2v-3.8l-189.9-0.2z" fill="#D58D7B" p-id="3299"></path><path d="M878.5 603.4c0 122.6-109.3 157.6-203.2 163.2 13.5-12.7 26-26.6 36.9-41.6 55.5-10 129.5-33.1 129.5-121.5 0-34.3-36-62.9-69-68.1v-37.1c53.3 5.3 105.8 50.4 105.8 105.1z" fill="#FFDBC0" p-id="3300"></path><path d="M660.8 772.8l10.8-10.2c13.5-12.6 25.7-26.4 36.3-40.9l1.3-1.7 2.1-0.4c58.2-10.5 125-33.1 125-116.2 0-31.1-34-58-64.5-62.7l-4.5-0.7v-47.7l5.9 0.6c53.4 5.4 110.7 51.1 110.7 110.5 0 135.9-130.5 163.9-208.3 168.5l-14.8 0.9z m54.5-43c-7.8 10.6-16.4 20.7-25.8 30.3 87-7.9 183.6-42.4 183.6-156.7 0-51.5-48.1-91.6-95.1-99.1v26.6c34.1 7.3 69 37.1 69 72.5 0.1 90.9-74.5 115.8-131.7 126.4z" fill="#FFDBC0" p-id="3301"></path><path d="M469.9 851.3c-85.2 0-164.6-33.8-223.6-95.2-4.1-4.3-4-11.1 0.3-15.2s11.1-4 15.2 0.3c54.9 57.2 128.9 88.6 208.1 88.6 159.2 0 288.6-129.5 288.6-288.7v-92.3c0-5.9 4.8-10.7 10.7-10.7S780 443 780 448.9v92.3c0 170.9-139.1 310.1-310.1 310.1zM214.7 708.5c-3.5 0-7-1.7-9-4.9-31.3-48.7-45.9-100.3-45.9-162.5v-92.3c0-5.9 4.8-10.7 10.7-10.7s10.7 4.8 10.7 10.7v92.3c0 57.9 13.5 105.8 42.5 150.8 3.2 5 1.8 11.6-3.2 14.8-1.8 1.3-3.8 1.8-5.8 1.8z" fill="#B55A3C" p-id="3302"></path><path d="M447.7 720.2c-31.5 0-56.7-12.4-69.1-34-22.9-39.7 4.8-98.7 61.7-131.6 24.2-14 51.1-21.7 75.7-21.7 31.5 0 56.7 12.4 69.1 34 11.5 19.9 10.9 44.9-1.6 70.3-11.8 24-33.2 45.7-60.1 61.2-24.2 14.1-51.1 21.8-75.7 21.8zM516 554.4c-20.9 0-44 6.7-64.9 18.8-45.9 26.5-70.6 73.3-53.9 102.2 8.5 14.8 27 23.2 50.5 23.2 20.9 0 44-6.7 64.9-18.8 23.3-13.4 41.6-32 51.6-52.2 9.3-18.8 10.1-36.5 2.3-50.1-8.5-14.6-26.9-23.1-50.5-23.1z" fill="#B55A3C" p-id="3303"></path><path d="M386 687.9c-1.8 0-3.7-0.5-5.4-1.4-5.1-3-6.9-9.5-3.9-14.7 20.5-35.5 58.2-43.9 94.7-52.1 38.2-8.5 74.3-16.6 95.1-52.8 3-5.1 9.5-6.9 14.7-3.9 5.1 3 6.9 9.5 3.9 14.7-25.6 44.3-69.9 54.2-109.1 63-34.9 7.8-65 14.5-80.8 41.8-1.9 3.4-5.5 5.4-9.2 5.4z" fill="#B55A3C" p-id="3304"></path><path d="M762 457.9H170.7c-22.8 0-41.4-18.6-41.4-41.4v-5.2c0-22.8 18.6-41.4 41.4-41.4H762c22.8 0 41.4 18.6 41.4 41.4v5.2c0 22.9-18.6 41.4-41.4 41.4z m-591.3-66.5c-11 0-19.9 8.9-19.9 19.9v5.2c0 11 8.9 19.9 19.9 19.9H762c11 0 19.9-8.9 19.9-19.9v-5.2c0-11-8.9-19.9-19.9-19.9H170.7z" fill="#B55A3C" p-id="3305"></path><path d="M343.1 327.6c-2.7 0-5.5-1-7.6-3.1-4.2-4.2-4.2-11 0-15.2 8.7-8.7 13.5-20.3 13.5-32.7 0-12.3-4.8-24-13.5-32.7l-13.1-13.1c-26.4-26.4-26.4-69.4 0-95.7l6.3-6.3c4.2-4.2 11-4.2 15.2 0s4.2 11 0 15.2l-6.3 6.3c-18 18-18 47.3 0 65.4l13.1 13.1c26.4 26.4 26.4 69.3 0 95.7-2.1 2.1-4.8 3.1-7.6 3.1z" fill="#B55A3C" p-id="3306"></path><path d="M461.3 327.6c-2.7 0-5.5-1-7.6-3.1-4.2-4.2-4.2-11 0-15.2 8.7-8.7 13.5-20.3 13.5-32.7 0-12.3-4.8-24-13.5-32.7l-13.1-13.1c-26.4-26.4-26.4-69.4 0-95.7l6.3-6.3c4.2-4.2 11-4.2 15.2 0s4.2 11 0 15.2l-6.3 6.3c-18 18-18 47.3 0 65.4l13.1 13.1c26.4 26.4 26.4 69.3 0 95.7-2.1 2.1-4.9 3.1-7.6 3.1z" fill="#B55A3C" p-id="3307"></path><path d="M579.4 327.6c-2.7 0-5.5-1-7.6-3.1-4.2-4.2-4.2-11 0-15.2 8.7-8.7 13.5-20.3 13.5-32.7 0-12.3-4.8-24-13.5-32.7l-13.1-13.1c-26.4-26.4-26.4-69.4 0-95.7l6.3-6.3c4.2-4.2 11-4.2 15.2 0 4.2 4.2 4.2 11 0 15.2l-6.3 6.3c-18 18-18 47.4 0 65.4l13.1 13.1c12.8 12.8 19.8 29.8 19.8 47.9 0 18.1-7 35.1-19.8 47.9-2.1 2-4.8 3-7.6 3z" fill="#B55A3C" p-id="3308"></path><path d="M568 898.4H378.4c-17.9 0-32.5-14.6-32.5-32.5v-3.7c0-17.9 14.6-32.5 32.5-32.5H568c17.9 0 32.5 14.6 32.5 32.5v3.7c-0.1 18-14.6 32.5-32.5 32.5z m-189.6-47.1c-6.1 0-11 4.9-11 11v3.7c0 6.1 4.9 11 11 11H568c6.1 0 11-4.9 11-11v-3.7c0-6.1-4.9-11-11-11H378.4z" fill="#B55A3C" p-id="3309"></path><path d="M883.9 614.1c-5.9 0-10.7-4.8-10.7-10.7 0-58.3-44.6-105.8-99.5-105.8-5.9 0-10.7-4.8-10.7-10.7 0-5.9 4.8-10.7 10.7-10.7 66.7 0 121 57.1 121 127.3-0.1 5.8-4.9 10.6-10.8 10.6z" fill="#B55A3C" p-id="3310"></path><path d="M828.8 614.1c-5.9 0-10.7-4.8-10.7-10.7 0-26.2-19.9-47.5-44.4-47.5-5.9 0-10.7-4.8-10.7-10.7s4.8-10.7 10.7-10.7c36.3 0 65.8 31 65.8 69 0 5.8-4.8 10.6-10.7 10.6zM663.4 788.9c-5.9 0-10.7-4.8-10.7-10.7 0-5.9 4.8-10.7 10.7-10.7 95.7 0 209.7-28.5 209.7-164 0-5.9 4.8-10.7 10.7-10.7 5.9 0 10.7 4.8 10.7 10.7 0.1 119.5-82 185.4-231.1 185.4z" fill="#B55A3C" p-id="3311"></path><path d="M723.7 725.2c-5.1 0-9.6-3.6-10.5-8.8-1.1-5.8 2.8-11.4 8.6-12.5 68.4-12.7 96.3-41.8 96.3-100.5 0-5.9 4.8-10.7 10.7-10.7 5.9 0 10.7 4.8 10.7 10.7 0 89-60.8 111.8-113.8 121.6-0.7 0.1-1.3 0.2-2 0.2z" fill="#B55A3C" p-id="3312"></path></svg>